<?xml version="1.0" encoding="UTF-8" standalone="no"?>
<svg
   version="1.1"
   id="svg4082"
   x="0px"
   y="0px"
   width="1000"
   height="1000"
   viewBox="-391 312.5 1000 1000"
   enable-background="new -391 312.5 300 295"
   xml:space="preserve"
   sodipodi:docname="IATSE_logo.svg"
   inkscape:export-filename="../workspace/scdWs/IATSE-Web/images/apple-icon-152x152.png"
   inkscape:export-xdpi="14.592"
   inkscape:export-ydpi="14.592"
   inkscape:version="1.3.2 (091e20ef0f, 2023-11-25)"
   xmlns:inkscape="http://www.inkscape.org/namespaces/inkscape"
   xmlns:sodipodi="http://sodipodi.sourceforge.net/DTD/sodipodi-0.dtd"
   xmlns="http://www.w3.org/2000/svg"
   xmlns:svg="http://www.w3.org/2000/svg"><defs
   id="defs1" /><sodipodi:namedview
   id="namedview1"
   pagecolor="#505050"
   bordercolor="#eeeeee"
   borderopacity="1"
   inkscape:showpageshadow="0"
   inkscape:pageopacity="0"
   inkscape:pagecheckerboard="0"
   inkscape:deskcolor="#d1d1d1"
   showgrid="false"
   inkscape:export-bgcolor="#ffffff00"
   inkscape:zoom="0.68898305"
   inkscape:cx="324.39114"
   inkscape:cy="498.56089"
   inkscape:window-width="1920"
   inkscape:window-height="1020"
   inkscape:window-x="0"
   inkscape:window-y="30"
   inkscape:window-maximized="1"
   inkscape:current-layer="svg4082" />
<path
   style="display:none"
   d="m -233.244,597.805 -0.066,-0.827 c -0.156,-2.498 -0.535,-3.786 -1.212,-4.317 l -0.757,-0.588 0.757,-0.613 c 0.977,-1.045 1.278,-1.729 1.278,-2.937 0,-2.875 -2.035,-4.376 -5.726,-4.376 h -7.33 v 15.012 h 3.86 v -5.732 h 2.406 c 2.349,0 2.799,0.533 3.017,3.618 0.084,1.21 0.161,1.512 0.459,2.114 h 3.624 l -0.158,-0.524 z m -6.637,-7.177 h -2.634 v -3.613 h 2.786 c 1.883,0 2.712,0.602 2.712,1.81 0,1.353 -0.829,1.88 -2.864,1.803 z m -0.152,-14.254 c -8.677,0 -15.768,6.943 -15.768,15.534 0,8.617 7.091,15.558 15.768,15.558 8.602,0 15.696,-6.94 15.696,-15.558 0,-8.591 -7.011,-15.534 -15.696,-15.534 z m 0,27.626 c -6.717,0 -12.141,-5.444 -12.141,-12.092 0,-6.704 5.424,-12.065 12.141,-12.065 6.723,0 12.071,5.361 12.071,12.065 0,6.648 -5.421,12.092 -12.071,12.092 z"
   id="path2" /><path
   style="display:none;fill:#ffffff;fill-opacity:1;stroke:#000000;stroke-width:2.879;stroke-dasharray:none;stroke-opacity:1"
   d="m -245.09842,376.97278 h 10.67992 v -31.94062 h 6.1019 v -10.08319 h -22.64882 v 10.08319 h 5.867 z m 129.41053,-30.43011 c -4.25975,-2.48665 -5.45173,-0.35598 -7.84363,0 l -55.70464,50.39958 c -3.8312,-2.55552 3.41484,-14.50109 -1.70637,-15.3604 -6.81189,-0.41831 -9.38294,1.27794 -10.8245,-2.63122 6.80747,-24.23585 16.11608,-45.63566 23.6293,-69.86709 0.84922,-4.26193 -4.70724,-3.82909 -4.70724,-3.82909 h -132.54606 c -2.37967,0.33091 -6.1407,1.01312 -5.45726,4.43014 8.18438,23.88326 19.7948,46.05752 27.29568,69.95063 -1.36235,5.11022 -7.16697,1.02402 -10.58287,1.69402 -8.52961,0.6924 0,13.64172 -7.15939,15.00638 l -56.30104,-49.79401 c -2.72707,-2.3998 -9.71599,-3.25025 -11.42342,0.84585 l -38.38525,133.14382 c -1.36118,3.76656 -0.42947,3.40902 4.685,4.27184 20.90554,-0.42183 72.94364,-7.67452 73.35223,-3.83664 1.28768,3.41481 -5.53315,6.39341 -4.68485,12.36598 2.13912,7.67925 9.8929,5.27827 10.23893,12.79032 -19.18704,14.08567 -36.16354,18.68058 -54.25197,34.38257 -1.3714,2.39084 -1.02508,6.14312 1.3734,7.84158 l 94.84451,64.67479 c 2.38857,1.00276 5.11447,2.37065 7.16809,0.67 7.83829,-17.74001 21.14601,-63.46245 21.14601,-63.46245 4.7884,-1.02646 7.85929,5.4592 11.26291,8.53153 6.48597,3.06877 8.19453,-8.53153 13.99121,-9.89418 10.91816,20.80897 12.87389,43.15478 23.45367,64.30066 0,0 2.13592,3.84574 8.9589,-0.41176 l 98.270307,-65.25686 c 0.338318,-2.04466 1.360225,-5.79792 -1.037392,-7.16146 -18.076055,-11.27409 -56.714855,-34.21442 -56.714855,-34.21442 -1.27579,-5.96695 9.38179,-2.56558 10.67296,-13.21543 0.4174,-5.97054 -9.39203,-8.44266 -4.27752,-13.22101 26.88614,1.36355 56.305545,2.98637 69.053485,4.12836 3.215634,0.27811 5.219159,-1.73964 5.846914,-3.54158 z m -173.57605,-16.13052 c -5.5451,-13.22781 0.41875,-11.94205 0.41875,-11.94205 h 98.51972 c 4.10269,2.04901 0.94594,8.27435 -0.41531,11.34428 -7.1805,24.21585 -13.73866,40.17608 -22.60416,63.7107 -8.96148,9.39097 -20.05637,5.12457 -26.87607,2.57005 -7.24601,1.7074 -22.52064,6.90332 -26.01004,-2.12817 -10.5841,-23.54365 -14.17039,-38.98949 -23.03289,-63.55481 z m -70.54238,99.69832 37.78506,20.6942 3.04996,-10.60205 -4.85197,-2.30509 1.97001,-6.90766 5.3139,0.72664 3.03762,-10.60406 -42.7028,-3.54283 z m 15.31678,-2.58671 3.30244,0.62666 3.00639,0.50419 2.37859,0.37615 4.93761,0.671 -1.24767,4.33889 -6.06853,-2.85039 -2.27284,-1.02638 -2.3898,-1.05741 c -0.28156,-0.13803 -1.16415,-0.51539 -2.52315,-1.03962 -0.64242,-0.29496 -1.68743,-0.72015 -3.04231,-1.30011 z m 105.94257,11.54801 -9.49328,42.02146 h 11.02473 l 0.88837,-5.30587 h 7.18152 l 0.77247,5.30587 h 11.03378 l -8.36252,-42.02146 z m 3.84781,27.69295 1.06868,-6.62145 0.35959,-2.46311 0.35266,-2.5859 c 0.0636,-0.31718 0.17701,-1.25899 0.29387,-2.70803 0.11578,-0.70128 0.24038,-1.83325 0.41751,-3.27681 l 0.35827,3.96131 0.30169,3.35138 0.34392,3.01984 0.30842,2.40981 0.71233,4.91418 h -4.51694 z m -27.1319,14.32742 h 10.67761 v -42.02137 h -10.67761 z m 124.6454,-68.21069 c -4.19849,2.04678 -6.42349,5.2502 -7.83608,11.01262 l -0.51081,2.2428 c -0.43194,1.72189 -1.042,2.62006 -2.18369,3.16778 -1.36027,0.66231 -3.02651,-0.0416 -3.81797,-1.63623 -1.06074,-2.1917 -0.65672,-4.95652 1.15746,-8.1499 l -11.85516,5.78135 c 0.22038,3.05874 0.84255,5.59754 2.00575,7.98617 3.16226,6.50704 10.84355,8.70865 18.27648,5.09224 4.36775,-2.13933 6.62281,-5.28262 7.70245,-10.83454 l 0.4719,-2.06587 c 0.36404,-1.69297 1.07758,-2.96405 2.0438,-3.44596 1.30661,-0.629 2.84042,0.082 3.54164,1.51919 0.91163,1.86345 0.36396,4.76851 -1.4392,7.55446 l 11.56828,-5.63653 c 0.16008,-2.97639 -0.3006,-5.53196 -1.4861,-7.91948 -2.90294,-5.97726 -10.72222,-8.03201 -17.63875,-4.6681 z m -58.62642,121.13703 5.35301,8.56367 7.75789,-4.84384 3.4349,5.51424 -6.93775,4.33962 5.01229,8.02303 6.94659,-4.33762 3.24783,5.18684 -7.7558,4.84189 5.22034,8.35241 16.84524,-10.51842 -22.26483,-35.6558 z m -121.79702,30.68594 9.253,5.33173 21.00906,-36.40061 -9.25289,-5.32382 z m -65.06423,-95.80365 c -3.40482,0 -4.08601,-3.73994 -3.74094,-6.48368 10.22906,-30.37109 17.39494,-62.09893 30.02277,-91.09416 5.1144,-1.70625 8.86656,4.78939 12.96266,7.16579 16.71493,19.10248 51.51727,30.9665 47.42878,61.33434 -2.05362,8.18552 -3.08202,16.83179 -8.18438,23.23304 -4.44425,1.36241 -57.31948,4.48566 -78.48889,5.84467 z m 103.33268,120.10417 c -1.01416,2.38745 -1.27898,7.25829 -6.47611,4.52463 -21.837,-15.6987 -45.38069,-29.35039 -67.90236,-45.03911 -1.0173,-1.36916 -3.41717,-3.41479 -1.36342,-5.11451 17.06206,-11.94319 34.46708,-23.5436 53.22448,-32.07291 8.0152,-5.04007 10.48952,6.56476 18.6829,8.61499 5.80564,2.3764 23.45,2.98647 21.57669,8.44384 -5.11457,20.46459 -11.25654,40.17497 -17.74218,60.64307 z m 39.54802,-65.80999 c -19.44851,-9.12821 -48.62299,-1.71839 -56.29419,-29.86125 -4.70487,-33.26293 13.64622,-49.04501 3.82677,-77.19204 l 12.37385,-11.94572 c 15.71757,3.90706 25.60939,2.65254 40.09357,-2.55652 13.65512,6.50675 25.20013,6.025 40.51343,2.97421 l 11.52478,10.23886 c -11.09732,30.71613 12.36035,46.91686 3.83448,78.48121 -10.66752,29.00644 -39.31789,20.73304 -55.87269,29.86125 z m 116.26111,19.17594 c 2.0424,1.71071 -0.3397,3.76664 -1.36365,5.12777 -22.52295,15.69433 -46.06312,29.35158 -67.90043,45.04694 -5.20017,2.7202 -5.44956,-2.14038 -6.4836,-4.52906 -6.48132,-20.47371 -12.61987,-40.17279 -17.73322,-60.65097 -1.87662,-5.44969 15.76879,-6.05183 21.57565,-8.45039 8.18662,-2.02682 10.65979,-13.63815 18.6848,-8.60402 18.75992,8.52837 36.16494,20.13554 53.22045,32.05973 z m 26.276023,-73.6894 c -21.160583,-1.3611 -73.274253,-4.26298 -77.706363,-5.62539 -5.45735,-6.15081 -6.91668,-15.2702 -8.95927,-23.46123 -4.08827,-30.36881 30.70286,-42.22079 47.42438,-61.33427 4.09052,-2.39083 7.84156,-8.87769 12.96277,-7.16829 12.62126,29.00441 19.78704,60.73564 30.025972,91.10225 0.345128,2.73594 -0.344902,6.48693 -3.747489,6.48693 z m -97.759463,-52.53983 -5.96266,-5.1236 c -13.93099,2.776 -26.39869,2.51112 -38.81501,-3.40832 -13.1718,4.73738 -20.89434,7.67236 -37.95536,2.9776 l -6.82306,6.39241 c 8.09981,27.30673 -10.66862,52.03792 -3.84457,76.35271 9.39982,22.12118 33.64696,13.22101 48.62299,23.88869 15.73093,-10.24578 38.38539,-0.86171 48.61106,-23.88869 8.96796,-28.14819 -14.0602,-50.76359 -3.83339,-77.1908 z m -3.2302,76.75672 c -9.13599,14.08705 -28.33179,9.90629 -41.9747,17.07334 -16.03598,-7.16593 -33.70255,-4.26412 -41.80558,-16.63802 -6.39018,-17.9125 12.03326,-52.03245 4.27745,-74.21809 l 1.27675,-2.13486 c 17.90923,3.84337 22.93916,1.88552 34.8858,-2.20271 11.26393,5.11351 24.57302,5.44951 37.19183,3.05869 l 1.70634,1.70853 c -8.53057,26.9628 14.33404,48.10904 4.44211,73.35312 z"
   id="path1" /><path
   style="display:inline;fill:#000000;fill-opacity:1;stroke:#ffffff;stroke-width:2;stroke-linecap:round;stroke-linejoin:round;stroke-dasharray:none;stroke-opacity:1"
   d="M 97.165744,585.51688 H 125.90385 V 499.5688 h 16.41913 V 472.43579 H 81.378404 v 27.13301 h 15.78734 z M 445.39461,503.63332 c -11.46204,-6.6914 -14.66984,-0.95884 -21.10637,0 L 274.39351,639.25266 c -10.30906,-6.87694 9.18947,-39.02029 -4.59145,-41.33291 -18.32992,-1.12601 -25.24862,3.43847 -29.12769,-7.08049 18.31839,-65.21585 43.36662,-122.8005 63.58366,-188.0043 2.28543,-11.46852 -12.66606,-10.30358 -12.66606,-10.30358 H -65.074816 c -6.4039,0.88973 -16.52392,2.72575 -14.68533,11.92079 22.02344,64.26668 53.26549,123.93554 73.4501298,188.22943 -3.66653,13.75056 -19.2861898,2.75559 -28.4780598,4.55847 -22.9517,1.86277 0,36.70799 -19.26464,40.3803 L -205.55234,503.63002 c -7.33827,-6.4574 -26.14461,-8.74591 -30.73946,2.27621 L -339.58161,864.1811 c -3.66356,10.1359 -1.15643,9.1747 12.60635,11.4955 56.25456,-1.1351 196.28313,-20.6514 197.38245,-10.3241 3.46504,9.189 -14.88919,17.204 -12.60661,33.2761 5.75663,20.6634 26.62049,14.2028 27.55229,34.417 -51.6303,37.9032 -97.31189,50.2671 -145.98578,92.5196 -3.69032,6.4335 -2.75863,16.5299 3.6959,21.1006 l 255.2153138,174.0323 c 6.42768,2.6987 13.7622902,6.3797 19.2887302,1.8031 21.09153,-47.7363 56.90151,-170.7705 56.90151,-170.7705 12.88511,-2.7617 21.1485,14.6911 30.307726,22.9577 17.45264,8.2575 22.0502,-22.9577 37.64873,-26.6239 29.37944,55.9939 34.64182,116.1243 63.11061,173.0262 0,0 5.74785,10.348 24.10798,-1.1083 l 264.4343,-175.5988 c 0.91047,-5.502 3.66014,-15.6016 -2.7914,-19.2709 -48.64099,-30.3375 -152.61441,-92.0671 -152.61441,-92.0671 -3.432,-16.057 25.2461,-6.904 28.7206,-35.5615 1.12333,-16.0659 -25.27285,-22.7179 -11.51018,-35.576 72.34707,3.6689 151.51169,8.036 185.815,11.1089 8.65286,0.7486 14.04429,-4.6815 15.73347,-9.5304 z M -21.678196,460.22774 c -14.92144,-35.5944 1.12573,-32.13506 1.12573,-32.13506 H 244.55344 c 11.04,5.51413 2.54556,22.26604 -1.11763,30.52666 -19.32152,65.16192 -36.96883,108.10914 -60.82481,171.43865 -24.1142,25.2693 -53.96957,13.78905 -72.32066,6.9155 -19.498556,4.5945 -60.600736,18.57578 -69.990516,-5.72714 C 11.819494,567.89376 2.1686838,526.3299 -21.678196,460.22774 Z m -189.822824,268.27716 101.67609,55.6855 8.20681,-28.5288 -13.05609,-6.203 5.30144,-18.5875 14.298434,1.9556 8.17376,-28.5347 -114.908174,-9.53353 z m 41.2161,-6.961 8.8865,1.6864 8.08999,1.3571 6.40037,1.012 13.28668,1.8061 -3.35752,11.675 -16.32953,-7.6703 -6.11611,-2.7619 -6.43069,-2.8454 c -0.75748,-0.3711 -3.13329,-1.3866 -6.78969,-2.7975 -1.72827,-0.7936 -4.54088,-1.9378 -8.18607,-3.4981 z M 114.7949,752.6186 89.249344,865.6937 h 29.667036 l 2.38992,-14.2777 h 19.32466 l 2.07855,14.2777 h 29.691 L 149.89785,752.6186 Z m 10.35428,74.5187 2.87511,-17.8177 0.96768,-6.6284 0.949,-6.9578 c 0.17034,-0.8536 0.47672,-3.3877 0.79101,-7.2869 0.31111,-1.8871 0.64688,-4.9331 1.12339,-8.8182 l 0.96413,10.6599 0.81147,9.0183 0.92583,8.1262 0.82984,6.4841 1.91687,13.2238 h -12.15433 z m -73.009276,38.5536 h 28.73213 V 752.6154 H 52.139904 Z M 387.54681,682.14333 c -11.29764,5.5079 -17.28485,14.12787 -21.08587,29.63357 l -1.37471,6.0354 c -1.16211,4.6331 -2.80358,7.0503 -5.87632,8.5237 -3.6602,1.7823 -8.14374,-0.1112 -10.27334,-4.4027 -2.8544,-5.8971 -1.76707,-13.33717 3.11494,-21.93033 L 320.1502,715.5597 c 0.59316,8.2305 2.26737,15.0624 5.3975,21.4901 8.5091,17.5093 29.17845,23.4338 49.18005,13.7026 11.75266,-5.7566 17.82109,-14.2145 20.72628,-29.1543 l 1.26979,-5.559 c 0.97964,-4.55572 2.8995,-7.97606 5.49937,-9.27267 3.51624,-1.69282 7.64335,0.22142 9.53029,4.08804 2.45307,5.01393 0.97964,12.83153 -3.87256,20.32793 l 31.12845,-15.1671 c 0.43142,-8.00941 -0.8086,-14.88598 -3.99847,-21.31049 -7.81142,-16.08406 -28.85227,-21.61311 -47.46409,-12.56148 z m -157.7567,325.96617 14.40376,23.0445 20.87598,-13.0348 9.24294,14.8381 -18.66868,11.6778 13.48699,21.5891 18.6926,-11.672 8.7399,13.9573 -20.87006,13.0289 14.04749,22.4753 45.32808,-28.304 -59.91178,-95.946 z m -327.742776,82.5729 24.89872,14.3468 56.53304,-97.9499 -24.89875,-14.326 z M -273.03267,832.8851 c -9.16251,0 -10.99559,-10.0636 -10.06729,-17.4467 27.52578,-81.7252 46.80816,-167.10144 80.78828,-245.12477 13.76262,-4.59141 23.85904,12.88798 34.88106,19.28278 44.97788,51.40252 138.627014,83.32793 127.625764,165.04389 -5.52575,22.0265 -8.29335,45.2923 -22.02341,62.5173 -11.95931,3.6663 -154.240054,12.0704 -211.204404,15.7275 z M 5.0229138,1156.0722 c -2.72841,6.4248 -3.44098,19.5312 -17.4253198,12.1753 -58.76146,-42.2436 -122.115074,-78.9787 -182.718044,-121.1951 -2.73763,-3.6842 -9.19535,-9.1895 -3.66918,-13.7627 45.91221,-32.1376 92.74721,-63.3534 143.221474,-86.3049 21.56798,-13.562 28.22639,17.6654 50.2732498,23.1824 15.6223502,6.3945 63.1017102,8.0359 58.0605802,22.7212 -13.76282,55.0686 -30.28985,108.106 -47.7427602,163.1838 z M 111.44332,978.9848 C 59.109164,954.4217 -19.396126,974.3604 -40.038446,898.6314 -52.698976,809.1248 -3.3180662,766.6563 -29.741236,690.91556 L 3.5556638,658.77187 c 42.2940402,10.51295 68.9122302,7.13757 107.8876562,-6.87947 36.74435,17.50923 67.80981,16.21266 109.01699,8.00286 l 31.01183,27.5523 c -29.86134,82.65354 33.26067,126.24764 10.31769,211.18384 -28.7051,78.0533 -105.79979,55.7903 -150.34651,80.3534 z m 312.84492,51.6004 c 5.49591,4.6034 -0.91368,10.1352 -3.66908,13.7984 -60.60625,42.2314 -123.95033,78.9814 -182.71206,121.2158 -13.99343,7.3205 -14.66445,-5.7594 -17.44679,-12.187 -17.44074,-55.0925 -33.95887,-108.1004 -47.71867,-163.2048 -5.0498,-14.6638 42.43223,-16.2843 58.05782,-22.7391 22.0293,-5.4541 28.68432,-36.6993 50.27909,-23.1526 50.48018,22.9492 97.31495,54.182 143.20969,86.2693 z m 70.70591,-198.29 c -56.9405,-3.6631 -197.17253,-11.4713 -209.09918,-15.1376 -14.685,-16.5508 -18.61181,-41.0899 -24.10773,-63.1313 -11.00119,-81.71945 82.61786,-113.61151 127.61381,-165.04389 11.00668,-6.43354 21.10061,-23.8893 34.88106,-19.2886 33.9618,78.04712 53.24458,163.43229 80.79663,245.14559 0.92879,7.3622 -0.92825,17.4558 -10.08459,17.4558 z M 231.93453,690.91556 215.88976,677.12913 c -37.48703,7.46998 -71.03564,6.7572 -104.44644,-9.17088 -35.444486,12.74715 -56.224616,20.64506 -102.1341162,8.01198 l -18.36037,17.20099 C 12.744534,766.6507 -37.759196,833.1997 -19.396126,898.6286 5.8980738,958.1535 71.143884,934.2046 111.44332,962.9099 153.7739,935.3396 214.73358,960.5917 242.24997,898.6286 266.3814,822.8845 204.41539,762.0292 231.93453,690.91556 Z M 223.24265,897.4604 C 198.65866,935.3668 147.00449,924.1172 110.29327,943.4026 67.142304,924.12 19.603304,931.9282 -2.2009262,898.6314 -19.396126,850.4305 30.179614,758.6178 9.3092038,698.91882 l 3.4353302,-5.74449 c 48.19185,10.34173 61.7269,5.07353 93.873766,-5.9277 30.31051,13.7599 66.12334,14.66446 100.07941,8.23082 l 4.59157,4.59724 c -22.95487,72.55451 38.57125,129.45601 11.95337,197.38571 z"
   id="path1-7" />
</svg>
